<svg width="107" height="136" viewBox="0 0 107 136" fill="none" xmlns="http://www.w3.org/2000/svg"><rect x="18" y="103" width="70" height="11" fill="#F7F9FC" stroke="#D5DBE6" stroke-width="2"></rect><rect x="17" y="14" width="72" height="59" fill="url(#paint0_linear_1336_14065)"></rect><rect opacity="0.3" x="19" y="104" width="68" height="3" fill="#BCC3D1"></rect><path d="M4 126.5C4 125.672 4.67157 125 5.5 125H9.5C10.3284 125 11 125.672 11 126.5V128H4V126.5Z" fill="white" stroke="#BCC3D1" stroke-width="2"></path><path d="M96 126.5C96 125.672 96.6716 125 97.5 125H101.5C102.328 125 103 125.672 103 126.5V128H96V126.5Z" fill="white" stroke="#BCC3D1" stroke-width="2"></path><path d="M15 126.5C15 125.672 15.6716 125 16.5 125H18.5C19.3284 125 20 125.672 20 126.5V128H15V126.5Z" fill="white" stroke="#BCC3D1" stroke-width="2"></path><path d="M87 126.5C87 125.672 87.6716 125 88.5 125H90.5C91.3284 125 92 125.672 92 126.5V128H87V126.5Z" fill="white" stroke="#BCC3D1" stroke-width="2"></path><path d="M24 126.5C24 125.672 24.6716 125 25.5 125H81.5C82.3284 125 83 125.672 83 126.5V128H24V126.5Z" fill="white" stroke="#BCC3D1" stroke-width="2"></path><rect x="1" y="128" width="105" height="7" rx="3" fill="white" stroke="#D5DBE6" stroke-width="2"></rect><line x1="1" y1="131.5" x2="105" y2="131.5" stroke="#D5DBE6"></line><path opacity="0.3" fill-rule="evenodd" clip-rule="evenodd" d="M24 19C21.7909 19 20 20.7909 20 23V30C20 27.7909 21.7909 26 24 26H82C84.2091 26 86 27.7909 86 30V23C86 20.7909 84.2091 19 82 19H24Z" fill="#BCC3D1"></path><circle cx="45" cy="58" r="15" fill="#D5DBE6"></circle><circle cx="43" cy="56" r="14.5" fill="white" stroke="#D5DBE6"></circle><path d="M47.9696 54.4257C48.2145 52.7477 46.9509 51.8396 45.2074 51.2375L45.7755 48.9574L44.4042 48.612L43.8557 50.8328C43.4933 50.744 43.121 50.6552 42.7488 50.5762L43.2973 48.3455L41.926 48L41.3677 50.2702C41.0641 50.2011 40.7702 50.132 40.4862 50.0629V50.0531L38.5859 49.5793L38.2235 51.0598C38.2235 51.0598 39.2422 51.2967 39.2226 51.3066C39.7809 51.4448 39.8789 51.8199 39.8593 52.116L39.2128 54.7119C39.252 54.7218 39.3009 54.7316 39.3597 54.7613C39.3107 54.7514 39.2618 54.7415 39.2128 54.7218L38.3116 58.3541C38.2431 58.5219 38.0668 58.7785 37.6848 58.6798C37.6946 58.6996 36.6857 58.4331 36.6857 58.4331L36 60.0222L37.7925 60.4762C38.1255 60.5651 38.4488 60.644 38.772 60.7329L38.2039 63.0327L39.5752 63.3782L40.1433 61.0981C40.5155 61.1968 40.8878 61.2955 41.2404 61.3843L40.6821 63.6545L42.0534 64L42.6215 61.7002C44.9723 62.1444 46.7354 61.9667 47.4701 59.8248C48.0676 58.1073 47.4407 57.1104 46.2065 56.459C47.1174 56.2517 47.7933 55.6496 47.9696 54.4257ZM44.8254 58.8674C44.4042 60.5848 41.5244 59.657 40.5939 59.4201L41.3481 56.3701C42.2787 56.607 45.276 57.0709 44.8254 58.8674ZM45.2564 54.3961C44.8646 55.9655 42.4746 55.1659 41.7007 54.9685L42.3864 52.2048C43.1602 52.4022 45.658 52.7674 45.2564 54.3961Z" fill="#BCC3D1"></path><mask id="path-15-inside-1_1336_14065" fill="white"><path fill-rule="evenodd" clip-rule="evenodd" d="M17 5C13.6863 5 11 7.68629 11 11V98C11 101.314 13.6863 104 17 104H89C92.3137 104 95 101.314 95 98V11C95 7.68629 92.3137 5 89 5H17ZM25 20C22.7909 20 21 21.7909 21 24V63C21 65.2091 22.7909 67 25 67H81C83.2091 67 85 65.2091 85 63V24C85 21.7909 83.2091 20 81 20H25Z"></path></mask><path fill-rule="evenodd" clip-rule="evenodd" d="M17 5C13.6863 5 11 7.68629 11 11V98C11 101.314 13.6863 104 17 104H89C92.3137 104 95 101.314 95 98V11C95 7.68629 92.3137 5 89 5H17ZM25 20C22.7909 20 21 21.7909 21 24V63C21 65.2091 22.7909 67 25 67H81C83.2091 67 85 65.2091 85 63V24C85 21.7909 83.2091 20 81 20H25Z" fill="white"></path><path d="M13 11C13 8.79086 14.7909 7 17 7V3C12.5817 3 9 6.58172 9 11H13ZM13 98V11H9V98H13ZM17 102C14.7909 102 13 100.209 13 98H9C9 102.418 12.5817 106 17 106V102ZM89 102H17V106H89V102ZM93 98C93 100.209 91.2091 102 89 102V106C93.4183 106 97 102.418 97 98H93ZM93 11V98H97V11H93ZM89 7C91.2091 7 93 8.79086 93 11H97C97 6.58172 93.4183 3 89 3V7ZM17 7H89V3H17V7ZM23 24C23 22.8954 23.8954 22 25 22V18C21.6863 18 19 20.6863 19 24H23ZM23 63V24H19V63H23ZM25 65C23.8954 65 23 64.1046 23 63H19C19 66.3137 21.6863 69 25 69V65ZM81 65H25V69H81V65ZM83 63C83 64.1046 82.1046 65 81 65V69C84.3137 69 87 66.3137 87 63H83ZM83 24V63H87V24H83ZM81 22C82.1046 22 83 22.8954 83 24H87C87 20.6863 84.3137 18 81 18V22ZM25 22H81V18H25V22Z" fill="#D5DBE6" mask="url(#path-15-inside-1_1336_14065)"></path><circle cx="75" cy="32" r="15" fill="#D5DBE6"></circle><circle cx="73" cy="29" r="14.5" fill="white" stroke="#D5DBE6"></circle><path fill-rule="evenodd" clip-rule="evenodd" d="M67.45 27.76H77.04C77.16 27.76 77.27 27.81 77.36 27.9L78.88 29.46C79.16 29.75 78.96 30.24 78.56 30.24H68.97C68.85 30.24 68.74 30.19 68.65 30.1L67.13 28.54C66.85 28.25 67.05 27.76 67.45 27.76ZM67.13 25.69L68.65 24.13C68.73 24.04 68.85 23.99 68.97 23.99H78.55C78.95 23.99 79.15 24.48 78.87 24.77L77.36 26.33C77.28 26.42 77.16 26.47 77.04 26.47H67.45C67.05 26.47 66.85 25.98 67.13 25.69ZM78.87 32.3L77.35 33.86C77.26 33.95 77.15 34 77.03 34H67.45C67.05 34 66.85 33.51 67.13 33.22L68.65 31.66C68.73 31.57 68.85 31.52 68.97 31.52H78.55C78.95 31.52 79.15 32.01 78.87 32.3Z" fill="#BCC3D1"></path><circle cx="25" cy="18" r="15" fill="#D5DBE6"></circle><circle cx="23" cy="15" r="14.5" fill="white" stroke="#D5DBE6"></circle><path fill-rule="evenodd" clip-rule="evenodd" d="M20.6429 23.8888C20.6429 24.1975 20.4072 24.36 20.1243 24.2788C18.2224 23.6497 16.563 22.4119 15.3856 20.7442C14.2082 19.0764 13.5737 17.0649 13.5737 15C13.5737 12.9351 14.2082 10.9236 15.3856 9.25586C16.563 7.5881 18.2224 6.35035 20.1243 5.72125C20.4072 5.62375 20.6429 5.8025 20.6429 6.11125V6.85875C20.6429 7.07 20.4857 7.2975 20.2972 7.3625C17.2957 8.5 15.1429 11.49 15.1429 14.9838C15.1429 18.4775 17.2957 21.4675 20.2972 22.605C20.4857 22.67 20.6429 22.9138 20.6429 23.1088V23.8725V23.8888Z" fill="#BCC3D1"></path><path fill-rule="evenodd" clip-rule="evenodd" d="M23.7857 21.0936C23.7857 21.3211 23.6128 21.4999 23.3928 21.4999H22.6071C22.3871 21.4999 22.2143 21.3211 22.2143 21.0936V19.8099C20.5014 19.5661 19.6685 18.5749 19.4328 17.2261C19.3857 16.9986 19.5743 16.7874 19.7943 16.7874H20.69C20.8785 16.7874 21.0357 16.9174 21.0671 17.1124C21.24 17.9249 21.68 18.5261 23.0628 18.5261C24.0843 18.5261 24.7914 17.9411 24.7914 17.0636C24.7914 16.1861 24.3671 15.8611 22.8743 15.6011C20.6743 15.2924 19.6371 14.6099 19.6371 12.8224C19.6371 11.4411 20.6428 10.3849 22.1985 10.1411V8.88989C22.1985 8.66239 22.3714 8.48364 22.5914 8.48364H23.3771C23.5971 8.48364 23.77 8.66239 23.77 8.88989V10.1899C25.0428 10.4174 25.8443 11.1649 26.0957 12.3999C26.1428 12.6274 25.97 12.8549 25.7343 12.8549H24.9014C24.7285 12.8549 24.5714 12.7249 24.5243 12.5624C24.3043 11.7824 23.7543 11.4411 22.8271 11.4411C21.79 11.4411 21.2557 11.9611 21.2557 12.6924C21.2557 13.4561 21.5543 13.8461 23.1571 14.0899C25.31 14.3986 26.4257 15.0324 26.4257 16.9336C26.4257 18.3799 25.3885 19.5499 23.77 19.8099V21.0936H23.7857Z" fill="#BCC3D1"></path><path fill-rule="evenodd" clip-rule="evenodd" d="M25.8757 24.2787C25.5928 24.3762 25.3571 24.1975 25.3571 23.8887V23.1412C25.3571 22.9137 25.4828 22.7025 25.7028 22.6375C28.7043 21.5 30.8571 18.51 30.8571 15.0162C30.8571 11.5225 28.7043 8.53248 25.7028 7.39498C25.6056 7.35257 25.5217 7.28296 25.4607 7.19397C25.3996 7.10498 25.3637 7.00013 25.3571 6.89123V6.14373C25.3571 5.83498 25.5928 5.65623 25.8757 5.75373C29.6785 7.00498 32.4285 10.6937 32.4285 15.0325C32.4285 19.3712 29.6785 23.0437 25.8757 24.3112V24.2787Z" fill="#BCC3D1"></path><rect x="20.5" y="81.5" width="6" height="6" rx="1.5" fill="#E9EDF5" stroke="#D5DBE6"></rect><rect x="55.75" y="80.75" width="29.5" height="1.5" rx="0.75" fill="white" stroke="#BCC3D1" stroke-width="1.5"></rect><rect x="75.5" y="78.5" width="10" height="6" rx="3" fill="#E9EDF5" stroke="#BCC3D1"></rect><defs><linearGradient id="paint0_linear_1336_14065" x1="67" y1="90.5" x2="67" y2="29.5" gradientUnits="userSpaceOnUse"><stop stop-color="#D5DBE6"></stop><stop offset="1" stop-color="#D5DBE6" stop-opacity="0"></stop></linearGradient></defs></svg>
