<svg xmlns="http://www.w3.org/2000/svg" version="1.1" xmlns:xlink="http://www.w3.org/1999/xlink" xmlns:svgjs="http://svgjs.dev/svgjs" viewBox="0 0 800 800"><defs><linearGradient x1="50%" y1="0%" x2="50%" y2="100%" id="ccchaos-grad"><stop stop-color="#bae6fd" stop-opacity="1" offset="0%"></stop><stop stop-color="#ffaa6f" stop-opacity="1" offset="100%"></stop></linearGradient></defs><g stroke-width="1.5" stroke="url(#ccchaos-grad)" fill="none" stroke-linecap="round"><path d="M354.39 49.85C360.68 40.98 369.71 35.67 377.3 34.61 384.88 33.77 390.91 37.15 392.15 44.92Q394.66 54.68 398.34 64.53 403.3 74.51 409.57 84.61 417.13 94.84 425.91 105.23 435.79 115.76 446.61 126.46 458.15 137.33 470.16 148.36 482.39 159.55 494.53 170.92 506.32 182.45 517.46 194.14 527.71 205.98 536.83 217.96 544.64 230.07 551.01 242.3 555.86 254.63 559.17 267.05 560.99 279.54 561.42 292.07 560.63 304.64 558.84 317.21 556.31 329.76 553.33 342.28 550.23 354.74 547.34 367.12 545 379.38 543.51 391.52 543.16 403.51 544.19 415.32 546.79 426.95 551.09 438.36 557.16 449.55 564.99 460.49 574.5 471.18 585.54 481.61 597.9 491.76 611.3 501.64 625.43 511.24 639.95 520.55 654.46 529.59 668.61 538.35 682.01 546.85 694.32 555.09 705.24 563.1 714.51 570.88 726.4 585.78 732.37 600.2 729.32 614.12 722.18 627.9 711.67 641.79 701.59 655.95 696.23 670.89 695.81 686.49C697.95 692.4 697.02 700.49 694.24 707.92 692.24 715.55 687.38 723.09 679.58 727.77Q669.98 734.4 660.37 741.76 650.77 749.6 641.17 757.64 631.56 765.6 621.96 773.2 612.35 780.18 602.75 786.29 593.14 791.33 583.54 795.11 573.93 797.5 564.33 798.41 554.73 797.83 545.12 795.76 535.52 792.28 525.91 787.51 516.31 781.62 506.7 774.81 497.1 767.33 487.49 759.42 477.89 751.37 468.28 743.47 458.68 735.98 449.08 729.16 439.47 723.27 429.87 718.49 420.26 715.01 410.66 712.93 401.05 712.34 391.45 713.25 381.84 715.63 372.24 719.4 362.63 724.43 353.03 730.53 343.42 737.51 333.82 745.11 324.22 753.07 314.61 761.11 305.01 768.95 295.4 776.31 285.8 782.95 276.19 788.62 266.59 793.13 256.98 796.32 247.38 798.08 237.77 798.34 228.17 797.11 218.56 794.42 208.96 790.36 199.35 785.09 189.75 778.77 180.14 771.64 170.54 763.94 160.94 755.93 151.33 747.91 141.73 740.16 132.12 732.93 122.52 726.48 112.91 721.05 103.31 716.81 93.7 713.93 84.1 712.49 74.49 712.55 64.89 714.1C53.8 715.62 42.68 702.59 45.83 689.86Q50.95 677.62 56.31 665.72 61.93 654.19 67.81 643.01 73.95 632.19 80.31 621.73 86.86 611.61 93.54 601.83 100.28 592.37 107.01 583.22 113.64 574.36 120.11 565.77 126.34 557.41 132.24 549.28 137.77 541.34 142.88 533.57 151.52 518.44 158.86 503.55 164.48 488.75 169.56 473.84 174.81 458.48 180.87 442.72 184.63 434.54 188.95 426.18 193.9 417.61 199.51 408.82 205.8 399.81 212.73 390.57 220.27 381.08 228.35 371.37 236.85 361.41 245.65 351.22 254.61 340.81 263.58 330.18 272.4 319.33 280.9 308.29 288.93 297.07 296.36 285.67 303.07 274.13 308.96 262.45 313.98 250.65 318.11 238.75 321.35 226.78 323.76 214.75 325.42 202.67 326.46 190.58 327.02 178.49 327.28 166.42 327.43 154.37 327.68 142.39 328.24 130.46 329.29 118.62 331.03 106.87 333.61 95.23 337.17 83.7 341.79 72.29 350.96 55.42 354.39 49.85" stroke-dasharray="2 7" transform="rotate(0, 400, 400)" opacity="0.24"></path><path d="M352.86 60.17C358.09 51.57 366.37 46.38 373.65 45.32 380.93 44.46 387.14 47.7 389.23 55.22Q392.84 64.64 397.62 74.17 403.61 83.81 410.8 93.57 419.13 103.46 428.51 113.49 438.77 123.66 449.75 133.99 461.22 144.48 472.96 155.12 484.69 165.93 496.18 176.9 507.16 188.02 517.39 199.3 526.67 210.73 534.8 222.3 541.65 234 547.11 245.81 551.15 257.74 553.77 269.76 555.04 281.85 555.06 294.01 554.02 306.2 552.12 318.42 549.6 330.64 546.74 342.85 543.84 355.01 541.19 367.12 539.08 379.14 537.81 391.06 537.61 402.85 538.71 414.5 541.27 425.99 545.42 437.3 551.21 448.41 558.63 459.31 567.63 469.98 578.07 480.41 589.77 490.59 602.5 500.51 615.97 510.17 629.89 519.56 643.9 528.68 657.69 537.54 670.9 546.14 683.22 554.48 694.35 562.57 704.04 570.42 712.1 578.06 718.38 585.49 724.48 599.73 725.26 613.55 718.92 626.92 709.92 640.17 700.04 653.55 691.9 667.18 689.72 674.22 689.1 681.44C689.76 686.76 687.22 694.75 683.21 702.43 679.95 710.29 674.34 718.3 666.82 723.52Q657.56 730.56 648.3 738.06 639.04 745.75 629.78 753.4 620.52 760.75 611.25 767.55 601.99 773.6 592.73 778.68 583.47 782.63 574.21 785.32 564.95 786.67 555.68 786.63 546.42 785.2 537.16 782.42 527.9 778.4 518.64 773.25 509.38 767.16 500.11 760.31 490.85 752.94 481.59 745.28 472.33 737.59 463.07 730.12 453.8 723.11 444.54 716.8 435.28 711.38 426.02 707.05 416.76 703.94 407.5 702.14 398.23 701.73 388.97 702.72 379.71 705.06 370.45 708.7 361.19 713.49 351.93 719.3 342.67 725.93 333.4 733.16 324.14 740.75 314.88 748.46 305.62 756.03 296.36 763.21 287.1 769.77 277.83 775.5 268.57 780.2 259.31 783.72 250.05 785.95 240.79 786.82 231.53 786.28 222.26 784.37 213 781.15 203.74 776.71 194.48 771.21 185.22 764.83 175.96 757.77 166.69 750.27 157.43 742.57 148.17 734.93 138.91 727.6 129.65 720.81 120.39 714.79 111.13 709.73 101.86 705.81 92.6 703.15 83.34 701.84 74.08 701.92C63.43 701.75 53.04 687.67 56.34 675.81Q61.56 664.65 67.04 653.83 72.78 643.36 78.77 633.22 84.98 623.41 91.37 613.92 97.9 604.74 104.5 595.86 111.1 587.25 117.63 578.9 124.02 570.78 130.19 562.88 136.07 555.17 141.6 547.63 151.24 532.98 159.57 518.59 165.87 504.36 171.25 490.06 175.91 475.41 180.76 460.41 186.98 444.64 194.61 428.32 199.42 419.81 204.86 411.08 210.96 402.13 217.68 392.95 224.99 383.55 232.81 373.92 241.06 364.07 249.62 354 258.37 343.72 267.15 333.24 275.83 322.57 284.25 311.72 292.27 300.7 299.75 289.53 306.58 278.23 312.67 266.81 317.95 255.29 322.38 243.68 325.95 232.01 328.69 220.29 330.67 208.55 331.98 196.79 332.73 185.04 333.09 173.31 333.21 161.61 333.29 149.98 333.5 138.41 334.03 126.91 335.08 115.51 336.8 104.22 339.33 93.03 342.81 81.95 350.08 65.59 352.86 60.17" stroke-dasharray="2 6" transform="rotate(5.225806451612903, 400, 400)" opacity="0.79"></path><path d="M352.49 70.48C356.67 62.14 364.21 57.08 371.21 56.01 378.21 55.15 384.64 58.25 387.6 65.5Q392.28 74.61 398.08 83.81 404.98 93.11 412.95 102.53 421.89 112.07 431.66 121.74 442.13 131.56 453.08 141.52 464.32 151.62 475.62 161.89 486.76 172.3 497.49 182.87 507.6 193.59 516.9 204.46 525.2 215.47 532.36 226.63 538.27 237.91 542.88 249.31 546.17 260.82 548.16 272.44 548.94 284.13 548.62 295.89 547.37 307.71 545.4 319.56 542.92 331.43 540.2 343.3 537.49 355.14 535.07 366.95 533.2 378.71 532.13 390.38 532.08 401.96 533.24 413.42 535.76 424.74 539.75 435.91 545.26 446.92 552.3 457.73 560.79 468.35 570.65 478.76 581.71 488.94 593.77 498.88 606.59 508.59 619.89 518.04 633.38 527.24 646.75 536.19 659.71 544.88 671.95 553.32 683.2 561.52 693.22 569.47 701.8 577.2 708.79 584.7 716.81 599.02 719.76 612.82 715.43 625.97 707.98 638.86 698.35 651.59 689.41 664.39 686.18 670.9 684.14 677.51C683.56 682.35 679.6 690.21 674.5 698.05 670.08 706.03 663.75 714.33 656.49 719.86Q647.54 727.03 638.59 734.39 629.63 741.72 620.68 748.78 611.73 755.36 602.78 761.26 593.82 766.3 584.87 770.32 575.92 773.19 566.96 774.84 558.01 775.21 549.06 774.29 540.11 772.1 531.15 768.72 522.2 764.25 513.25 758.82 504.3 752.6 495.34 745.79 486.39 738.58 477.44 731.22 468.49 723.91 459.53 716.88 450.58 710.36 441.63 704.54 432.68 699.59 423.72 695.68 414.77 692.92 405.82 691.39 396.87 691.15 387.91 692.2 378.96 694.51 370.01 698 361.06 702.58 352.1 708.09 343.15 714.37 334.2 721.24 325.25 728.46 316.29 735.84 307.34 743.13 298.39 750.11 289.44 756.57 280.48 762.32 271.53 767.17 262.58 770.97 253.63 773.62 244.68 775.02 235.72 775.13 226.77 773.96 217.82 771.53 208.87 767.93 199.91 763.25 190.96 757.66 182.01 751.31 173.06 744.4 164.1 737.15 155.15 729.78 146.2 722.51 137.25 715.56 128.29 709.16 119.34 703.5 110.39 698.74 101.44 695.05 92.49 692.52 83.53 691.25C73.29 689.47 63.66 674.3 67.14 663.29Q72.5 653.2 78.1 643.43 83.95 633.97 90.02 624.81 96.26 615.95 102.64 607.36 109.09 599.04 115.56 590.96 121.97 583.11 128.26 575.47 134.35 568.01 140.18 560.72 150.64 546.56 159.9 532.68 167.08 518.99 173.11 505.27 177.8 491.28 182.16 476.99 186.96 462.02 192.62 446.55 196.17 438.5 200.26 430.24 204.93 421.78 210.21 413.11 216.11 404.22 222.62 395.12 229.69 385.8 237.26 376.27 245.26 366.53 253.57 356.59 262.08 346.46 270.67 336.14 279.18 325.65 287.5 315 295.48 304.21 302.99 293.28 309.93 282.23 316.19 271.08 321.7 259.84 326.42 248.53 330.31 237.17 333.4 225.78 335.72 214.36 337.34 202.94 338.36 191.54 338.89 180.16 339.09 168.82 339.1 157.53 339.1 146.32 339.27 135.18 339.77 124.13 340.77 113.18 342.42 102.33 344.86 91.6 350.34 75.73 352.49 70.48" stroke-dasharray="5 6" transform="rotate(10.451612903225806, 400, 400)" opacity="0.98"></path><path d="M353.33 80.79C359.91 70.25 380.15 67.33 387.29 75.81Q392.97 84.58 399.67 93.45 407.34 102.42 415.91 111.5 425.26 120.69 435.25 130.01 445.72 139.47 456.48 149.06 467.34 158.79 478.08 168.66 488.5 178.69 498.41 188.86 507.61 199.17 515.95 209.63 523.28 220.23 529.5 230.96 534.53 241.83 538.34 252.81 540.93 263.9 542.36 275.1 542.7 286.38 542.09 297.74 540.69 309.16 538.67 320.63 536.26 332.13 533.69 343.64 531.19 355.16 529 366.65 527.35 378.11 526.47 389.51 526.56 400.84 527.77 412.08 530.25 423.21 534.09 434.21 539.33 445.08 545.98 455.78 553.99 466.32 563.29 476.66 573.72 486.81 585.12 496.75 597.27 506.48 609.95 515.97 622.89 525.23 635.81 534.26 648.46 543.04 660.55 551.58 671.83 559.89 682.07 567.95 691.07 575.78 698.67 583.39 708.44 597.87 713.45 611.78 711.23 624.88 705.6 637.61 696.72 649.94 687.62 662.16 683.71 668.28 680.63 674.44C678.18 683.44 662.61 705.48 648.53 716.47Q639.86 723.51 631.18 730.5 622.51 737.26 613.83 743.58 605.16 749.27 596.48 754.19 587.81 758.19 579.13 761.15 561.78 763.05 544.43 761.4 535.76 758.56 527.08 754.67 518.41 749.84 509.73 744.22 501.06 737.96 492.38 731.24 483.71 724.26 475.03 717.22 466.36 710.32 457.68 703.75 449.01 697.71 440.33 692.36 431.66 687.87 422.98 684.36 405.63 681.26 388.28 681.68 379.61 683.94 370.93 687.3 362.26 691.65 353.58 696.88 344.91 702.83 336.23 709.33 327.56 716.2 318.88 723.24 310.21 730.24 301.53 737.01 292.86 743.34 284.18 749.07 275.51 754.02 266.83 758.05 258.16 761.05 249.48 762.93 232.13 762.56 214.78 758.69 206.11 754.84 197.43 750.04 188.76 744.45 180.08 738.21 171.41 731.51 162.73 724.54 154.06 717.49 145.38 710.58 136.71 703.99 128.03 697.93 119.36 692.56 110.68 688.03 102.01 684.48 93.33 682.01C79.26 680.46 70.87 665.94 78.33 652.36Q83.82 643.29 89.53 634.51 95.46 625.99 101.56 617.74 107.79 609.74 114.1 601.97 120.43 594.41 126.71 587.05 132.87 579.87 138.87 572.84 149.91 559.2 159.94 545.83 168 532.68 174.85 519.52 179.98 506.14 184.41 492.51 188.48 478.27 192.87 463.59 198.72 448.04 205.92 431.92 210.45 423.51 215.56 414.9 221.27 406.08 227.56 397.05 234.39 387.83 241.7 378.41 249.43 368.8 257.49 359 265.76 349.03 274.13 338.89 282.47 328.6 290.66 318.16 298.58 307.6 306.09 296.92 313.1 286.14 319.51 275.27 325.23 264.32 330.21 253.32 334.43 242.28 337.86 231.22 340.54 220.14 342.51 209.06 343.84 198.01 344.62 186.98 344.98 176 345.04 165.07 344.97 154.21 344.9 143.43 345.01 132.74 345.45 122.13 346.37 111.63 347.92 101.24 351.77 85.88 353.33 80.79" stroke-dasharray="4 0" transform="rotate(15.67741935483871, 400, 400)" opacity="0.61"></path><path d="M355.37 91.09C360.69 80.88 380.26 77.96 388.3 86.1Q394.85 94.56 402.29 103.1 410.55 111.73 419.53 120.47 429.09 129.32 439.11 138.29 449.41 147.38 459.81 156.6 470.14 165.95 480.21 175.45 489.85 185.08 498.87 194.85 507.14 204.76 514.53 214.8 520.91 224.99 526.22 235.3 530.42 245.74 533.49 256.3 535.46 266.97 536.38 277.74 536.35 288.61 535.5 299.55 533.98 310.57 531.96 321.64 529.64 332.76 527.22 343.9 524.93 355.06 522.96 366.22 521.53 377.36 520.84 388.46 521.05 399.52 522.31 410.5 524.74 421.41 528.42 432.21 533.4 442.9 539.68 453.46 547.23 463.88 555.98 474.13 565.8 484.22 576.55 494.12 588.05 503.83 600.09 513.34 612.45 522.64 624.89 531.72 637.17 540.58 649.04 549.21 660.27 557.61 670.63 565.78 679.95 573.73 688.04 581.46 699.37 596.16 706.32 610.25 706.25 623.44 702.6 636.17 694.91 648.31 686.24 660.21 682 666.07 678.26 671.92C674.24 680.36 656.43 702.26 642.76 713.11Q634.33 719.78 625.91 726.21 617.48 732.23 609.06 737.68 600.64 742.41 592.21 746.3 575.36 750.64 558.51 751.77 550.09 750.42 541.66 748.02 533.24 744.62 524.82 740.33 516.39 735.25 507.97 729.52 499.54 723.29 491.12 716.73 482.69 710.01 474.27 703.33 465.85 696.84 457.42 690.74 449 685.17 440.57 680.3 432.15 676.24 423.72 673.12 406.87 670.51 390.03 671.17 381.6 673.38 373.18 676.6 364.75 680.74 356.33 685.69 347.9 691.32 339.48 697.47 331.05 703.98 322.63 710.68 314.2 717.38 305.78 723.92 297.36 730.1 288.93 735.78 280.51 740.79 272.08 745 255.23 750.07 238.38 751.98 229.96 751.03 221.53 749.01 213.11 745.96 204.69 741.98 196.26 737.17 187.84 731.66 179.41 725.59 170.99 719.13 162.56 712.45 154.14 705.73 145.71 699.15 137.29 692.89 128.86 687.11 120.44 681.97 112.01 677.61 103.59 674.14C89.92 670.63 82.25 655.18 89.91 643.03Q95.51 634.9 101.31 627.02 107.27 619.37 113.36 611.93 119.52 604.69 125.7 597.63 131.83 590.74 137.87 584 149.26 570.9 159.84 558.07 168.68 545.45 176.34 532.83 182.13 520.03 186.99 507.01 190.88 493.45 194.65 479.49 199.06 464.73 204.36 449.44 207.72 441.48 211.57 433.32 215.96 424.96 220.91 416.42 226.42 407.67 232.49 398.74 239.07 389.63 246.13 380.33 253.6 370.86 261.38 361.22 269.4 351.42 277.54 341.48 285.69 331.39 293.74 321.19 301.56 310.87 309.05 300.45 316.1 289.94 322.62 279.36 328.52 268.73 333.75 258.04 338.27 247.33 342.04 236.6 345.08 225.86 347.42 215.14 349.1 204.43 350.19 193.77 350.79 183.14 351.01 172.58 350.97 162.08 350.82 151.65 350.69 141.31 350.73 131.07 351.08 120.91 351.89 110.86 354.33 96 355.37 91.09" stroke-dasharray="5 3" transform="rotate(20.903225806451612, 400, 400)" opacity="0.90"></path><path d="M358.56 101.37C361.86 86.33 380.57 83.49 390.53 96.41Q397.8 104.54 405.8 112.75 414.45 121.05 423.64 129.45 433.23 137.95 443.09 146.57 453.05 155.3 462.95 164.15 472.64 173.13 481.95 182.24 490.73 191.48 498.85 200.85 506.17 210.36 512.61 219.99 518.08 229.76 522.54 239.65 525.96 249.67 528.35 259.8 529.76 270.04 530.24 280.38 529.9 290.82 528.86 301.35 527.26 311.95 525.26 322.62 523.05 333.34 520.8 344.1 518.71 354.88 516.96 365.68 515.74 376.48 515.22 387.26 515.54 398.01 516.84 408.72 519.22 419.36 522.76 429.94 527.48 440.42 533.41 450.8 540.51 461.06 548.72 471.19 557.94 481.18 568.06 491.01 578.9 500.67 590.31 510.16 602.08 519.46 614.01 528.56 625.87 537.47 637.45 546.16 648.54 554.65 658.94 562.92 668.46 570.98 676.94 578.83 684.25 586.45 690.29 593.87 697.65 608.01 700.98 621.56 698.34 634.27 692.93 646.53 684.89 658.22 676.66 669.66C671.65 677.75 652.22 699.17 638.92 709.49Q622.53 721.27 606.13 730.93 589.74 737.51 573.35 740.37 556.96 739.22 540.56 734.17 524.17 725.72 507.78 714.72 491.38 702.24 474.99 689.52 458.6 677.83 442.2 668.32 425.81 661.92 409.42 659.28 393.03 660.65 376.63 665.9 360.24 674.51 343.85 685.63 327.45 698.15 311.06 710.84 294.67 722.44 278.28 731.81 261.88 738.01 245.49 740.44 229.1 738.85 212.71 733.4 196.31 724.63 179.92 713.41 163.53 700.84 147.13 688.18 130.74 676.67 114.35 667.45C101.05 662.3 94.08 646.08 101.91 635.23Q107.59 627.95 113.42 620.87 119.36 613.97 125.37 607.24 137.34 594.27 149.01 581.65 159.67 569.42 169.45 557.31 177.45 545.21 184.33 533.02 189.47 520.49 193.8 507.67 197.34 494.23 200.85 480.36 205.1 465.67 210.23 450.45 213.49 442.53 217.23 434.42 221.48 426.13 226.26 417.66 231.57 409.01 237.41 400.19 243.76 391.19 250.55 382.03 257.74 372.71 265.26 363.25 273.01 353.64 280.91 343.91 288.85 334.05 296.72 324.09 304.43 314.02 311.87 303.88 318.93 293.66 325.53 283.38 331.58 273.06 337.03 262.7 341.82 252.32 345.92 241.93 349.32 231.55 352.03 221.18 354.09 210.83 355.54 200.52 356.45 190.26 356.91 180.06 357.02 169.92 356.9 159.86 356.68 149.88 356.48 139.98 356.44 130.18 356.69 120.48 357.96 106.12 358.56 101.37" stroke-dasharray="3 9" transform="rotate(26.129032258064516, 400, 400)" opacity="0.55"></path><path d="M362.79 111.66C364.64 97.15 382.78 94.32 393.88 106.72Q401.67 114.53 410.04 122.41 418.88 130.38 428.08 138.44 437.51 146.6 447.03 154.87 456.51 163.24 465.79 171.72 474.73 180.33 483.21 189.06 491.1 197.9 498.28 206.88 504.67 215.98 510.2 225.2 514.8 234.55 518.46 244.02 521.16 253.61 522.95 263.31 523.86 273.12 523.96 283.03 523.37 293.04 522.18 303.14 520.53 313.32 518.59 323.56 516.49 333.87 514.42 344.23 512.53 354.62 511 365.05 509.98 375.48 509.62 385.92 510.05 396.34 511.38 406.74 513.71 417.1 517.09 427.41 521.57 437.65 527.16 447.81 533.82 457.88 541.51 467.84 550.15 477.69 559.64 487.41 569.85 496.99 580.62 506.41 591.78 515.68 603.16 524.78 614.57 533.7 625.81 542.43 636.69 550.98 647.03 559.32 656.65 567.48 665.41 575.42 673.17 583.17 679.81 590.72 688.85 605.11 694.16 618.92 693.61 631.83 690.11 644.25 683.23 655.96 675.47 667.33C670 675.25 649.6 695.94 636.64 705.36Q620.68 715.54 604.71 723.26 588.74 727.81 572.77 728.77 556.8 726.06 540.83 719.92 524.87 710.92 508.9 699.88 492.93 687.82 476.96 675.85 460.99 665.06 445.02 656.44 429.06 650.79 413.09 648.63 397.12 650.14 381.15 655.21 365.18 663.35 349.22 673.82 333.25 685.66 317.28 697.79 301.31 709.08 285.34 718.51 269.38 725.21 253.41 728.56 237.44 728.25 221.47 724.31 205.5 717.11 189.54 707.31 173.57 695.8 157.6 683.64 141.63 671.96 125.66 661.81C112.71 655.36 106.36 638.53 114.32 628.83Q125.85 615.97 137.54 603.52 149.02 591.58 160.07 579.84 169.94 568.28 178.86 556.72 186.04 545.01 192.15 533.11 196.69 520.76 200.52 508.07 203.75 494.71 207.03 480.89 211.12 466.27 216.11 451.13 219.27 443.26 222.89 435.22 226.99 427 231.6 418.62 236.72 410.08 242.34 401.37 248.43 392.51 254.96 383.51 261.87 374.36 269.11 365.09 276.59 355.69 284.23 346.18 291.94 336.56 299.63 326.85 307.2 317.07 314.55 307.21 321.59 297.29 328.23 287.32 334.4 277.32 340.03 267.3 345.07 257.26 349.47 247.22 353.22 237.19 356.31 227.18 358.76 217.2 360.59 207.26 361.86 197.36 362.63 187.53 362.99 177.75 363.03 168.05 362.84 158.43 362.56 148.89 362.29 139.44 362.16 130.09 362.54 116.25 362.79 111.66" stroke-dasharray="5 4" transform="rotate(31.35483870967742, 400, 400)" opacity="0.31"></path><path d="M367.91 121.94C368.62 107.96 386.23 105.15 398.17 117.03Q406.28 124.52 414.8 132.08 423.63 139.71 432.65 147.44 441.74 155.25 450.78 163.17 459.64 171.18 468.19 179.3 476.32 187.53 483.93 195.88 490.9 204.34 497.16 212.92 502.64 221.61 507.29 230.43 511.08 239.36 513.99 248.4 516.06 257.56 517.3 266.84 517.78 276.21 517.57 285.69 516.77 295.26 515.48 304.93 513.83 314.67 511.95 324.49 509.99 334.38 508.1 344.32 506.42 354.31 505.09 364.34 504.26 374.39 504.05 384.46 504.57 394.53 505.93 404.59 508.2 414.64 511.44 424.65 515.68 434.61 520.93 444.52 527.17 454.37 534.36 464.13 542.44 473.8 551.32 483.36 560.9 492.81 571.03 502.14 581.58 511.33 592.39 520.38 603.31 529.27 614.15 538.01 624.75 546.57 634.95 554.97 644.58 563.18 653.5 571.21 661.59 579.06 668.72 586.71 679.24 601.36 686.36 615.45 687.9 628.63 686.43 641.29 681.08 653.16 674.3 664.62C668.87 672.53 648.17 692.22 635.55 700.48Q619.98 708.85 604.42 714.57 588.86 717.16 573.29 716.38 557.73 712.32 542.17 705.31 526.61 695.95 511.04 685.04 495.48 673.49 479.92 662.3 464.35 652.41 448.79 644.66 433.23 639.71 417.66 637.99 402.1 639.63 386.54 644.5 370.97 652.18 355.41 662.03 339.85 673.2 324.28 684.75 308.72 695.69 293.15 705.1 277.59 712.18 262.03 716.32 246.46 717.18 230.9 714.68 215.34 709.03 199.77 700.71 184.21 690.44 168.65 679.07 153.08 667.59 137.52 656.96C124.89 649.58 119.1 632.38 127.07 623.66Q138.43 611.97 149.78 600.55 160.66 589.42 170.99 578.38 180 567.31 188.06 556.16 194.42 544.7 199.79 532.99 203.76 520.75 207.15 508.14 210.11 494.83 213.19 481.06 217.14 466.5 221.97 451.45 225.04 443.65 228.54 435.68 232.5 427.56 236.94 419.28 241.86 410.86 247.25 402.29 253.1 393.59 259.36 384.76 265.99 375.81 272.94 366.74 280.13 357.56 287.51 348.29 294.98 338.93 302.46 329.5 309.86 319.99 317.09 310.43 324.08 300.83 330.74 291.18 336.99 281.52 342.76 271.83 348.01 262.14 352.68 252.46 356.76 242.79 360.21 233.14 363.05 223.53 365.28 213.95 366.95 204.43 368.09 194.96 368.77 185.56 369.05 176.22 369.04 166.96 368.81 157.78 368.48 148.69 368.14 139.68 367.92 126.35 367.91 121.94" stroke-dasharray="1 4" transform="rotate(36.58064516129032, 400, 400)" opacity="0.17"></path><path d="M373.75 132.21C373.63 118.76 390.73 115.97 403.18 127.36Q419.87 141.76 437.15 156.45 454.17 171.49 470.06 186.9 484.03 202.72 495.45 218.98 503.87 235.68 509.16 252.82 511.42 270.39 511.06 288.37 508.75 306.73 505.34 325.42 501.82 344.39 499.21 363.57 498.49 382.91 500.48 402.31 505.78 421.69 514.71 440.98 527.26 460.07 543.08 478.9 561.53 497.36 581.69 515.39 602.48 532.91 622.72 549.85 641.25 566.18 657.06 581.83 669.32 596.79 677.55 611.05 681.6 624.6 681.7 637.46 678.46 649.67 672.78 661.27C667.84 669.28 647.45 687.77 635.15 694.65Q619.99 701.1 604.82 704.84 589.66 705.58 574.5 703.26 559.33 698.07 544.17 690.4 529 680.86 513.84 670.21 498.68 659.26 483.51 648.88 468.35 639.88 453.18 632.97 438.02 628.69 422.85 627.37 407.69 629.12 392.53 633.8 377.36 641.04 362.2 650.27 347.03 660.78 331.87 671.74 316.71 682.29 301.54 691.61 286.38 698.96 271.21 703.77 256.05 705.66 240.88 704.49 225.72 700.35 210.55 693.55 195.39 684.64 180.23 674.31 165.06 663.37 149.9 652.68C137.59 644.76 132.22 627.42 140.13 619.5Q151.2 608.73 162.04 598.14 172.32 587.63 181.72 577.08 190.01 566.39 197.03 555.47 202.75 544.22 207.27 532.58 210.81 520.46 213.71 507.82 216.4 494.61 219.34 480.82 223.01 466.42 227.85 451.41 234.2 435.81 242.29 419.65 252.17 402.96 263.76 385.79 276.76 368.2 290.76 350.25 305.22 332.02 319.53 313.56 333.06 294.97 345.23 276.31 355.56 257.65 363.72 239.07 369.58 220.63 373.2 202.38 374.88 184.38 375.09 166.66 374.11 140.74 373.75 132.21" stroke-dasharray="6 7" transform="rotate(41.806451612903224, 400, 400)" opacity="0.58"></path><path d="M380.07 142.47C379.46 129.56 396.09 126.81 408.68 137.68Q425.02 151.44 441.41 165.47 457.09 179.81 471.33 194.51 483.5 209.59 493.15 225.07 499.99 240.95 503.98 257.26 505.34 273.97 504.48 291.08 502.03 308.55 498.78 326.36 495.6 344.45 493.37 362.78 492.95 381.29 495.03 399.91 500.13 418.58 508.52 437.21 520.21 455.72 534.93 474.05 552.15 492.12 571.09 509.84 590.85 527.16 610.4 544 628.73 560.31 644.88 576.04 658.08 591.16 667.77 605.63 673.67 619.45 675.82 632.61 674.57 645.12 670.58 657.01C666.48 665.21 646.96 682.35 634.99 687.72Q620.23 692.22 605.47 694.06 590.71 693.13 575.96 689.48 561.2 683.38 546.44 675.27 531.68 665.73 516.92 655.45 502.16 645.16 487.4 635.62 472.65 627.5 457.89 621.39 443.13 617.73 428.37 616.79 413.61 618.62 398.85 623.1 384.09 629.91 369.33 638.56 354.57 648.42 339.82 658.78 325.06 668.9 310.3 678.05 295.54 685.58 280.78 690.93 266.02 693.73 251.26 693.77 236.5 691.05 221.74 685.77 206.98 678.3 192.23 669.19 177.47 659.08 162.71 648.72C150.74 640.63 145.68 623.38 153.4 616.08Q164.01 606.04 174.21 596.04 183.69 585.97 192.21 575.74 199.59 565.28 205.75 554.51 210.7 543.35 214.58 531.75 217.64 519.66 220.2 507.04 222.67 493.87 225.47 480.14 229.02 465.84 233.72 450.99 239.86 435.6 247.63 419.72 257.09 403.37 268.14 386.61 280.56 369.49 293.97 352.07 307.91 334.42 321.83 316.61 335.18 298.69 347.42 280.73 358.07 262.8 366.8 244.97 373.41 227.27 377.87 209.77 380.36 192.51 381.2 175.52 380.48 150.65 380.07 142.47" stroke-dasharray="7 7" transform="rotate(47.032258064516135, 400, 400)" opacity="0.45"></path><path d="M386.63 152.72C385.86 140.37 402.01 137.65 414.41 148.01Q430.04 161.12 445.25 174.49 459.39 188.15 471.9 202.14 482.3 216.47 490.26 231.17 495.64 246.26 498.5 261.73 499.08 277.59 497.83 293.82 495.32 310.4 492.27 327.31 489.43 344.52 487.58 361.97 487.43 379.63 489.58 397.43 494.47 415.33 502.34 433.24 513.21 451.11 526.86 468.87 542.87 486.45 560.59 503.78 579.26 520.79 598.01 537.43 615.96 553.63 632.24 569.35 646.12 584.53 657.01 599.16 664.57 613.19 668.67 626.62 669.46 639.43 667.36 651.64C664.4 660.07 646.22 675.75 634.59 679.56Q620.26 682.14 605.92 682.23 591.59 679.82 577.25 675.07 562.92 668.3 548.58 659.94 534.25 650.56 519.91 640.76 505.58 631.2 491.24 622.5 476.9 615.24 462.57 609.9 448.23 606.82 433.9 606.21 419.56 608.11 405.23 612.4 390.89 618.79 376.56 626.86 362.22 636.08 347.89 645.85 333.55 655.51 319.22 664.43 304.88 672.03 290.55 677.81 276.21 681.37 261.88 682.5 247.54 681.11 233.21 677.3 218.87 671.31 204.54 663.55 190.2 654.51 175.87 644.81C164.24 636.89 159.36 619.98 166.77 613.14Q176.78 603.62 186.21 594.01 194.82 584.22 202.42 574.19 208.89 563.85 214.21 553.14 218.43 542.01 221.74 530.42 224.36 518.34 226.63 505.75 228.91 492.63 231.59 478.99 235.04 464.83 239.6 450.18 245.52 435.05 252.97 419.48 262 403.52 272.53 387.21 284.35 370.6 297.16 353.75 310.55 336.71 324.04 319.55 337.13 302.33 349.34 285.1 360.23 267.91 369.44 250.83 376.74 233.89 382.03 217.14 385.38 200.63 387 184.37 386.94 160.56 386.63 152.72" stroke-dasharray="3 2" transform="rotate(52.25806451612903, 400, 400)" opacity="0.70"></path><path d="M393.19 162.98C392.54 151.15 408.21 148.48 420.11 158.35Q434.69 170.82 448.49 183.53 460.99 196.51 471.74 209.79 480.41 223.38 486.79 237.32 490.86 251.6 492.72 266.25 492.67 281.25 491.13 296.61 488.64 312.3 485.81 328.31 483.32 344.62 481.83 361.18 481.93 377.96 484.13 394.91 488.82 411.98 496.19 429.13 506.26 446.29 518.88 463.4 533.7 480.41 550.2 497.25 567.75 513.87 585.61 530.19 603.02 546.18 619.22 561.78 633.52 576.93 645.36 591.61 654.33 605.78 660.2 619.41 662.98 632.49 662.87 645C661.24 653.66 644.78 667.83 633.52 670.11Q619.64 670.89 605.75 669.42 591.87 665.76 577.98 660.16 564.1 652.93 550.21 644.53 536.33 635.44 522.44 626.22 508.56 617.42 494.67 609.56 480.79 603.13 466.9 598.51 453.02 595.97 439.14 595.66 425.25 597.62 411.37 601.71 397.48 607.69 383.6 615.2 369.71 623.8 355.83 632.96 341.95 642.14 328.06 650.78 314.18 658.37 300.29 664.45 286.41 668.65 272.52 670.72 258.64 670.54 244.76 668.12 230.87 663.6 216.99 657.26 203.1 649.47 189.22 640.71C177.96 633.24 173.15 616.91 180.13 610.38Q189.4 601.19 197.97 591.81 205.65 582.18 212.3 572.24 217.88 561.94 222.4 551.25 225.95 540.12 228.73 528.53 230.98 516.46 233 503.91 235.13 490.88 237.7 477.37 241.06 463.39 245.48 448.98 251.18 434.16 258.32 418.96 266.91 403.43 276.91 387.61 288.14 371.55 300.33 355.3 313.13 338.9 326.14 322.43 338.92 305.91 351.02 289.42 362.04 272.99 371.63 256.66 379.54 240.49 385.62 224.5 389.84 208.74 392.34 193.21 393.26 170.47 393.19 162.98" stroke-dasharray="6 8" transform="rotate(57.483870967741936, 400, 400)" opacity="0.88"></path><path d="M399.49 173.22C399.23 161.94 414.37 159.33 425.49 168.69Q438.77 180.53 451 192.58 461.78 204.88 470.8 217.45 477.83 230.31 482.77 243.49 485.68 256.98 486.7 270.81 486.15 284.96 484.41 299.45 481.99 314.25 479.42 329.36 477.28 344.76 476.12 360.41 476.45 376.29 478.69 392.36 483.17 408.58 490.05 424.91 499.37 441.3 511 457.71 524.66 474.06 539.95 490.33 556.35 506.44 573.23 522.36 589.96 538.02 605.88 553.38 620.37 568.4 632.88 583.02 642.99 597.22 650.42 610.97 655.05 624.22 656.93 636.98C656.7 645.85 642.23 658.5 631.36 659.31Q617.97 658.48 604.57 655.66 591.17 651.02 577.77 644.8 564.38 637.34 550.98 629.05 537.58 620.38 524.18 611.81 510.78 603.8 497.39 596.79 483.99 591.15 470.59 587.2 457.19 585.16 443.79 585.13 430.4 587.11 417 591 403.6 596.59 390.2 603.56 376.8 611.55 363.41 620.11 350.01 628.78 336.61 637.09 323.21 644.58 309.81 650.85 296.42 655.55 283.02 658.42 269.62 659.32 256.22 658.19 242.82 655.09 229.43 650.2 216.03 643.77 202.63 636.16C191.76 629.41 186.88 613.85 193.33 607.5Q201.75 598.49 209.38 589.22 216.09 579.64 221.82 569.72 226.53 559.42 230.31 548.71 233.26 537.57 235.58 526 237.5 513.97 239.32 501.5 241.32 488.59 243.81 475.26 247.07 461.52 251.36 447.4 256.84 432.93 263.65 418.15 271.82 403.1 281.29 387.81 291.91 372.33 303.47 356.71 315.67 340.99 328.15 325.22 340.54 309.44 352.45 293.69 363.51 278.02 373.38 262.47 381.8 247.06 388.59 231.84 393.67 216.82 397.07 202.04 399.21 180.36 399.49 173.22" stroke-dasharray="9 8" transform="rotate(62.70967741935484, 400, 400)" opacity="0.73"></path><path d="M405.31 183.46C405.61 172.72 420.2 170.16 430.31 179.05Q442.09 190.25 452.66 201.65 461.72 213.27 469.06 225.15 474.57 237.28 478.23 249.7 480.13 262.41 480.46 275.42 479.53 288.73 477.69 302.35 475.39 316.27 473.1 330.48 471.3 344.96 470.45 359.69 470.99 374.66 473.26 389.83 477.52 405.17 483.93 420.64 492.52 436.21 503.2 451.84 515.75 467.47 529.84 483.08 545.06 498.6 560.91 514 576.84 529.23 592.3 544.24 606.73 558.99 619.64 573.44 630.62 587.55 639.34 601.29 645.61 614.63 649.37 627.53C650.56 636.55 638.23 647.73 627.79 647.23Q614.92 645 602.05 641.09 589.18 635.71 576.31 629.11 563.44 621.62 550.56 613.6 537.69 605.46 524.82 597.59 511.95 590.38 499.08 584.19 486.21 579.32 473.33 576 460.46 574.41 447.59 574.62 434.72 576.62 421.85 580.31 408.98 585.51 396.1 591.97 383.23 599.36 370.36 607.33 357.49 615.47 344.62 623.4 331.75 630.72 318.87 637.07 306 642.13 293.13 645.67 280.26 647.49 267.39 647.53 254.51 645.76 241.64 642.29 228.77 637.27 215.9 630.96C205.47 625.11 200.43 610.49 206.26 604.22Q213.74 595.28 220.39 586.03 226.14 576.45 230.95 566.5 234.86 556.18 237.95 545.46 240.37 534.33 242.29 522.79 243.95 510.84 245.59 498.49 247.5 485.76 249.92 472.66 253.09 459.21 257.24 445.45 262.5 431.39 268.99 417.08 276.73 402.55 285.66 387.83 295.68 372.98 306.6 358.02 318.17 342.99 330.08 327.95 342.03 312.91 353.66 297.93 364.65 283.03 374.68 268.26 383.5 253.62 390.91 239.17 396.78 224.91 401.09 210.86 404.59 190.25 405.31 183.46" stroke-dasharray="8 2" transform="rotate(67.93548387096774, 400, 400)" opacity="0.09"></path><path d="M410.4 193.69C411.41 183.51 425.41 181.02 434.34 189.4Q444.5 199.97 453.37 210.72 460.75 221.68 466.54 232.86 470.67 244.27 473.2 255.94 474.26 267.87 474.04 280.08 472.84 292.56 470.98 305.33 468.85 318.36 466.85 331.67 465.38 345.24 464.83 359.05 465.54 373.09 467.82 387.34 471.87 401.77 477.83 416.35 485.72 431.06 495.48 445.85 506.96 460.7 519.88 475.57 533.92 490.42 548.68 505.2 563.71 519.89 578.54 534.43 592.7 548.8 605.76 562.94 617.31 576.84 627.02 590.44 634.67 603.73 640.12 616.67C642.67 625.75 632.52 635.54 622.54 633.9Q610.24 630.52 597.93 625.8 585.63 619.92 573.33 613.17 561.03 605.82 548.73 598.22 536.43 590.69 524.12 583.56 511.82 577.16 499.52 571.76 487.22 567.61 474.92 564.88 462.61 563.7 450.31 564.11 438.01 566.11 425.71 569.6 413.41 574.43 401.1 580.39 388.8 587.2 376.5 594.58 364.2 602.19 351.9 609.7 339.59 616.78 327.29 623.11 314.99 628.42 302.69 632.46 290.39 635.07 278.08 636.12 265.78 635.57 253.48 633.45 241.18 629.84 228.87 624.91C218.89 620.08 213.65 606.55 218.79 600.29Q225.27 591.34 230.93 582.06 235.73 572.44 239.69 562.47 242.86 552.13 245.34 541.41 247.29 530.33 248.88 518.87 250.32 507.05 251.84 494.89 253.67 482.39 256.03 469.59 259.12 456.49 263.13 443.13 268.17 429.54 274.33 415.75 281.63 401.79 290.04 387.69 299.46 373.48 309.72 359.21 320.64 344.91 331.95 330.61 343.39 316.34 354.67 302.13 365.48 288.01 375.56 274.02 384.66 260.16 392.56 246.47 399.14 232.97 404.29 219.66 409.21 200.13 410.4 193.69" stroke-dasharray="3 9" transform="rotate(73.16129032258064, 400, 400)" opacity="0.19"></path><path d="M414.58 203.92C416.37 194.29 429.75 191.87 437.38 199.76Q445.87 209.71 453.07 219.82 458.88 230.11 463.24 240.6 466.16 251.3 467.74 262.23 468.11 273.39 467.48 284.8 466.11 296.46 464.3 308.38 462.38 320.54 460.67 332.95 459.52 345.61 459.24 358.5 460.12 371.61 462.39 384.93 466.23 398.43 471.74 412.09 478.97 425.9 487.86 439.82 498.3 453.83 510.08 467.89 522.95 481.98 536.58 496.07 550.63 510.11 564.7 524.07 578.4 537.93 591.34 551.65 603.18 565.19 613.59 578.52 622.32 591.62 629.2 604.45C632.94 613.5 624.92 622 615.43 619.44Q603.74 615.2 592.05 609.92 580.36 603.8 568.67 597.09 556.98 590.05 545.29 582.97 533.6 576.11 521.91 569.76 510.22 564.15 498.53 559.51 486.84 556.03 475.15 553.84 463.46 553.03 451.77 553.63 440.08 555.61 428.39 558.9 416.7 563.37 405.02 568.84 393.33 575.1 381.64 581.9 369.95 588.96 358.26 596.02 346.57 602.8 334.88 609.02 323.19 614.45 311.5 618.86 299.81 622.09 288.12 624.01 276.43 624.53 264.75 623.65 253.06 621.39 241.37 617.85C231.88 614.12 226.39 601.76 230.78 595.47Q236.25 586.47 240.93 577.15 244.84 567.5 248.01 557.51 250.52 547.19 252.48 536.53 254.04 525.54 255.36 514.23 256.64 502.61 258.06 490.69 259.83 478.5 262.14 466.05 265.16 453.37 269.02 440.48 273.83 427.41 279.67 414.18 286.54 400.83 294.42 387.38 303.23 373.87 312.84 360.32 323.09 346.76 333.77 333.21 344.65 319.72 355.49 306.3 366.04 292.97 376.04 279.76 385.28 266.69 393.56 253.77 400.7 241.02 406.62 228.46 412.91 210 414.58 203.92" stroke-dasharray="3 2" transform="rotate(78.38709677419355, 400, 400)" opacity="0.96"></path><path d="M417.71 214.14C420.29 205.06 432.97 202.73 439.29 210.13Q446.13 219.45 451.75 228.92 456.11 238.55 459.21 248.36 461.1 258.35 461.89 268.55 461.73 278.96 460.82 289.58 459.38 300.43 457.68 311.5 455.99 322.81 454.58 334.33 453.73 346.09 453.7 358.06 454.71 370.24 456.96 382.61 460.58 395.17 465.67 407.9 472.26 420.78 480.32 433.79 489.76 446.91 500.44 460.12 512.15 473.38 524.64 486.68 537.64 499.99 550.83 513.28 563.89 526.52 576.5 539.68 588.34 552.74 599.14 565.66 608.64 578.42 616.64 590.99C621.39 599.91 615.34 607.27 606.39 604.02Q595.35 599.19 584.31 593.61 573.27 587.48 562.24 581 551.2 574.41 540.16 567.93 529.13 561.79 518.09 556.21 507.05 551.37 496.01 547.46 484.98 544.61 473.94 542.9 462.9 542.42 451.87 543.16 440.83 545.12 429.79 548.21 418.76 552.33 407.72 557.33 396.68 563.05 385.65 569.28 374.61 575.8 363.57 582.39 352.54 588.81 341.5 594.85 330.46 600.28 319.42 604.93 308.39 608.62 297.35 611.23 286.31 612.68 275.28 612.89 264.24 611.88 253.21 609.68C244.25 607.06 238.5 595.92 242.16 589.59Q246.63 580.54 250.4 571.2 253.48 561.54 255.95 551.59 257.88 541.34 259.4 530.79 260.64 519.97 261.76 508.87 262.91 497.51 264.27 485.92 266.01 474.1 268.27 462.07 271.2 449.87 274.92 437.5 279.5 425 285.01 412.39 291.45 399.7 298.81 386.94 307.01 374.14 315.96 361.33 325.53 348.53 335.55 335.77 345.83 323.06 356.16 310.43 366.34 297.9 376.16 285.48 385.41 273.19 393.9 261.05 401.48 249.06 408.02 237.24 415.58 219.87 417.71 214.14" stroke-dasharray="7 1" transform="rotate(83.61290322580645, 400, 400)" opacity="0.32"></path><path d="M419.66 224.35C422.99 215.83 434.95 213.59 439.95 220.5Q445.23 229.2 449.4 238.04 452.48 247.01 454.51 256.15 455.55 265.44 455.72 274.92 455.18 284.57 454.1 294.42 452.68 304.47 451.13 314.72 449.69 325.17 448.57 335.83 448.01 346.69 448.2 357.75 449.32 369 451.53 380.43 454.94 392.05 459.62 403.83 465.6 415.76 472.87 427.84 481.36 440.03 490.97 452.33 501.54 464.72 512.89 477.17 524.8 489.67 537.02 502.19 549.3 514.71 561.37 527.2 572.98 539.65 583.86 552.02 593.79 564.3 602.58 576.46C608.1 585.13 603.8 591.48 595.41 587.78Q585.06 582.64 574.71 577.01 564.36 571.06 554.02 564.96 543.67 558.92 533.32 553.12 522.97 547.72 512.62 542.91 502.28 538.82 491.93 535.58 481.58 533.3 471.23 532.04 460.89 531.84 450.54 532.71 440.19 534.61 429.84 537.5 419.5 541.28 409.15 545.84 398.8 551.04 388.45 556.71 378.1 562.68 367.76 568.78 357.41 574.81 347.06 580.58 336.71 585.93 326.36 590.68 316.02 594.69 305.67 597.83 295.32 600.02 284.97 601.18 274.62 601.27 264.28 600.3C255.88 598.75 249.9 588.85 252.83 582.5Q256.36 573.44 259.28 564.11 261.64 554.52 263.5 544.67 264.95 534.56 266.12 524.21 267.11 513.62 268.08 502.81 269.15 491.8 270.47 480.6 272.18 469.22 274.41 457.69 277.25 446.02 280.82 434.24 285.17 422.36 290.35 410.41 296.36 398.41 303.19 386.37 310.8 374.31 319.09 362.27 327.97 350.25 337.3 338.28 346.93 326.37 356.7 314.54 366.43 302.81 375.94 291.18 385.06 279.68 393.62 268.31 401.48 257.09 408.49 246.01 417.12 229.72 419.66 224.35" stroke-dasharray="6 2" transform="rotate(88.83870967741935, 400, 400)" opacity="0.18"></path><path d="M420.38 234.56C424.37 226.6 435.55 224.46 439.33 230.88Q445.62 247.24 449.2 263.97 449.58 272.57 449.3 281.33 448.51 290.25 447.36 299.34 446.02 308.6 444.66 318.04 443.48 327.65 442.66 337.45 442.35 347.43 442.74 357.58 443.95 367.92 446.1 378.42 449.29 389.09 453.58 399.92 458.98 410.9 465.5 422.01 473.09 433.26 481.68 444.62 491.15 456.08 501.36 467.63 512.15 479.25 523.34 490.93 534.71 502.64 546.07 514.36 557.2 526.09 567.89 537.79 577.94 549.46 587.17 561.06C593.21 569.36 590.42 574.88 582.61 570.96Q572.98 565.77 563.35 560.29 553.72 554.69 544.09 549.11 534.46 543.7 524.83 538.6 515.2 533.96 505.57 529.89 495.94 526.51 486.31 523.9 476.68 522.14 467.05 521.27 457.42 521.31 447.79 522.27 438.16 524.12 428.53 526.81 418.9 530.26 409.27 534.39 399.64 539.09 390.01 544.22 380.38 549.66 370.75 555.25 361.12 560.84 351.49 566.29 341.86 571.46 332.23 576.19 322.6 580.37 312.97 583.89 303.34 586.64 293.71 588.56 284.08 589.59 274.45 589.71C266.64 589.14 260.51 580.44 262.77 574.11Q265.45 565.1 267.62 555.87 269.35 546.41 270.7 536.74 271.78 526.86 272.67 516.79 273.49 506.53 274.35 496.09 275.38 485.5 276.69 474.77 278.38 463.91 280.56 452.94 283.32 441.87 286.73 430.72 290.84 419.51 295.68 408.26 301.27 396.98 307.59 385.69 314.59 374.41 322.23 363.15 330.41 351.93 339.04 340.76 347.99 329.66 357.14 318.64 366.33 307.71 375.44 296.88 384.3 286.17 392.78 275.57 400.73 265.11 408.05 254.79 417.51 239.58 420.38 234.56" stroke-dasharray="7 5" transform="rotate(94.06451612903227, 400, 400)" opacity="0.78"></path><path d="M419.87 244.76C424.36 237.36 434.74 235.32 437.41 241.27Q441.48 256.38 443.39 271.81 442.52 287.87 440.64 304.33 439.43 312.82 438.3 321.46 437.39 330.25 436.83 339.21 436.77 348.32 437.32 357.59 438.59 367.01 440.68 376.59 443.65 386.33 447.55 396.21 452.41 406.23 458.22 416.38 464.96 426.66 472.57 437.07 480.97 447.57 490.07 458.18 499.74 468.87 509.84 479.64 520.23 490.47 530.74 501.35 541.2 512.25 551.45 523.18 561.32 534.11 570.65 545.02C576.94 552.86 575.36 557.68 568.14 553.75Q550.37 543.59 532.59 533.5 514.81 524.41 497.03 517.15 479.26 512.39 461.48 510.56 443.7 511.84 425.92 516.1 408.15 522.96 390.37 531.79 372.59 541.76 354.81 551.98 337.03 561.5 319.26 569.45 301.48 575.09 283.7 577.91C276.48 578.18 270.29 570.64 271.95 564.39Q273.88 555.52 275.42 546.48 276.64 537.25 277.6 527.85 278.38 518.3 279.08 508.59 279.79 498.74 280.6 488.77 281.62 478.68 282.92 468.49 284.6 458.21 286.74 447.86 289.4 437.44 292.65 426.98 296.51 416.49 301.02 405.97 306.18 395.45 311.99 384.94 318.4 374.45 325.38 363.99 332.87 353.58 340.78 343.22 349.02 332.93 357.5 322.72 366.1 312.59 374.7 302.56 383.18 292.64 391.42 282.82 399.32 273.12 406.75 263.54 416.75 249.42 419.87 244.76" stroke-dasharray="5 6" transform="rotate(99.29032258064517, 400, 400)" opacity="0.40"></path><path d="M418.17 254.96C423.01 248.12 432.54 246.2 434.25 251.67Q436.78 265.5 437.15 279.7 435.96 294.32 433.97 309.4 432.06 324.99 431.1 341.11 431.94 357.77 435.26 374.98 441.55 392.73 451.03 410.99 463.64 429.74 479.04 448.92 496.61 468.47 515.5 488.32 534.73 508.39 553.27 528.6C559.58 535.89 558.88 540.14 552.29 536.39Q536.02 527.07 519.75 518.24 503.48 510.58 487.21 504.7 470.94 501.05 454.67 499.93 438.4 501.42 422.13 505.4 405.87 511.56 389.6 519.42 373.33 528.37 357.06 537.7 340.79 546.68 324.52 554.61 308.25 560.86 291.98 564.96C285.38 565.92 279.23 559.47 280.38 553.35Q282.73 535.98 284.22 518.06 285.39 499.68 286.84 480.9 289.17 461.81 292.93 442.5 298.57 423.06 306.35 403.57 316.39 384.12 328.56 364.79 342.54 345.66 357.82 326.79 373.77 308.24 389.64 290.07 404.68 272.3 418.17 254.96 418.17 254.96 418.17 254.96" stroke-dasharray="8 3" transform="rotate(104.51612903225806, 400, 400)" opacity="0.81"></path><path d="M415.36 265.15C420.36 258.89 429.04 257.08 429.99 262.07Q431.06 274.68 430.62 287.61 429.19 300.88 427.41 314.54 425.95 328.63 425.47 343.15 426.6 358.14 429.84 373.59 435.55 389.52 443.91 405.89 454.9 422.71 468.29 439.93 483.67 457.53 500.45 475.45 517.92 493.64 535.31 512.04C541.4 518.71 541.32 522.52 535.34 519.1Q520.59 510.88 505.84 503.4 491.09 497.15 476.34 492.55 461.59 489.91 446.84 489.38 432.09 491.02 417.34 494.71 402.6 500.2 387.85 507.14 373.1 515.07 358.35 523.47 343.6 531.78 328.85 539.46 314.1 545.99 299.35 550.96C293.37 552.45 287.39 546.96 288.13 541.08Q289.64 524.46 290.66 507.46 291.66 490.14 293.11 472.56 295.47 454.8 299.16 436.92 304.5 418.99 311.69 401.08 320.81 383.26 331.76 365.57 344.33 348.09 358.14 330.86 372.72 313.92 387.51 297.3 401.92 281.04 415.36 265.15 415.36 265.15 415.36 265.15" stroke-dasharray="7 3" transform="rotate(109.74193548387096, 400, 400)" opacity="0.68"></path><path d="M411.6 275.34C416.57 269.63 424.39 267.96 424.76 272.47Q424.81 283.88 423.9 295.55 422.46 307.5 420.99 319.77 419.99 332.38 419.95 345.36 421.3 358.71 424.42 372.46 429.57 386.6 436.87 401.13 446.34 416.05 457.84 431.33 471.1 446.96 485.72 462.91 501.24 479.14 517.08 495.63C522.74 501.61 523.01 505.08 517.64 502.1Q504.41 495.13 491.17 489.03 477.94 484.13 464.7 480.7 451.47 478.92 438.23 478.89 425 480.62 411.76 484 398.53 488.86 385.29 494.92 372.05 501.87 358.82 509.31 345.58 516.85 332.35 524.08 319.11 530.59 305.88 536.04C300.51 537.87 294.84 533.25 295.28 527.69Q296.21 512.05 296.96 496.15 297.91 480.07 299.41 463.84 301.82 447.52 305.41 431.16 310.44 414.82 317.03 398.54 325.24 382.37 335 366.35 346.17 350.53 358.49 334.93 371.61 319.59 385.13 304.53 398.61 289.78 411.6 275.34 411.6 275.34 411.6 275.34" stroke-dasharray="2 3" transform="rotate(114.96774193548387, 400, 400)" opacity="0.69"></path><path d="M407.06 285.53C411.82 280.39 418.78 278.84 418.76 282.89Q418.19 293.11 417.1 303.53 415.82 314.18 414.73 325.09 414.18 336.27 414.52 347.74 416.04 359.51 419.01 371.6 423.6 384.01 429.91 396.75 437.97 409.81 447.69 423.18 458.92 436.86 471.4 450.84 484.83 465.09 498.83 479.58C503.93 484.85 504.33 488.06 499.57 485.58Q487.83 479.95 476.09 475.2 464.35 471.55 452.61 469.15 440.87 468.11 429.13 468.48 417.39 470.24 405.65 473.31 393.91 477.55 382.17 482.79 370.43 488.78 358.69 495.27 346.95 501.96 335.21 508.57 323.46 514.79 311.72 520.36C306.96 522.37 301.72 518.5 301.97 513.34Q302.56 498.88 303.22 484.28 304.21 469.58 305.8 454.83 308.23 440.05 311.71 425.3 316.39 410.6 322.36 395.98 329.67 381.49 338.28 367.14 348.08 352.98 358.89 339.01 370.49 325.27 382.59 311.77 394.9 298.52 407.06 285.53 407.06 285.53 407.06 285.53" stroke-dasharray="3 5" transform="rotate(120.19354838709677, 400, 400)" opacity="0.75"></path><path d="M401.97 295.7C406.38 291.13 412.46 289.73 412.23 293.32Q411.39 302.35 410.35 311.54 409.36 320.91 408.68 330.48 408.55 340.27 409.19 350.28 410.82 360.52 413.6 371.02 417.64 381.76 423.03 392.77 429.78 404.03 437.86 415.56 447.17 427.34 457.58 439.37 468.9 451.64 480.88 464.14C485.32 468.71 485.65 471.67 481.49 469.73Q471.21 465.43 460.94 461.94 450.66 459.4 440.38 457.89 430.11 457.45 419.83 458.12 409.55 459.85 399.27 462.6 388.99 466.27 378.72 470.72 368.44 475.81 358.16 481.35 347.88 487.16 337.6 493.02 327.33 498.73 317.05 504.11C312.89 506.14 308.18 502.92 308.34 498.22Q308.81 485.13 309.49 471.98 310.59 458.8 312.28 445.63 314.71 432.48 318.04 419.38 322.34 406.35 327.7 393.43 334.13 380.62 341.6 367.95 350.06 355.44 359.39 343.1 369.44 330.95 380.03 319 396.46 301.47 401.97 295.7" stroke-dasharray="6 8" transform="rotate(125.41935483870968, 400, 400)" opacity="0.44"></path><path d="M396.56 305.89C400.47 301.88 405.72 300.63 405.41 303.75Q403.86 319.66 402.86 335.98 403.09 344.4 403.98 353 405.64 361.77 408.19 370.73 411.7 379.87 416.22 389.22 421.77 398.76 428.35 408.51 435.9 418.46 444.34 428.61 453.58 438.96 463.48 449.51C467.17 453.35 467.37 456.11 463.77 454.69Q454.91 451.64 446.06 449.29 437.21 447.7 428.35 446.92 419.5 446.96 410.64 447.82 401.79 449.49 392.94 451.91 384.08 455.02 375.23 458.74 366.37 462.97 357.52 467.59 348.66 472.49 339.81 477.53 330.95 482.57 322.1 487.48C318.5 489.41 314.43 486.72 314.56 482.56Q315.07 470.99 315.88 459.42 317.1 447.86 318.87 436.34 321.28 424.87 324.4 413.47 328.31 402.14 333.04 390.92 338.6 379.8 344.97 368.81 352.13 357.94 360.01 347.22 368.51 336.65 377.52 326.23 391.74 310.93 396.56 305.89" stroke-dasharray="8 1" transform="rotate(130.64516129032256, 400, 400)" opacity="0.54"></path><path d="M391.09 316.05C394.4 312.62 398.84 311.53 398.57 314.19Q397.46 327.67 397.3 341.55 398.87 355.89 402.78 370.73 409.48 386.12 419.16 402.09 431.72 418.65 446.84 435.82C449.79 438.98 449.76 441.5 446.73 440.57Q431.78 437.24 416.82 436.22 401.87 437.57 386.91 441.21 371.96 446.83 357 454 342.05 462.17 327.09 470.68C324.06 472.39 320.67 470.17 320.84 466.59Q322.46 446.75 325.61 427.07 330.81 407.62 338.37 388.48 348.4 369.71 360.79 351.36 375.2 333.46 391.09 316.05 391.09 316.05 391.09 316.05" stroke-dasharray="6 7" transform="rotate(135.8709677419355, 400, 400)" opacity="0.75"></path><path d="M385.83 326.22C388.49 323.36 392.13 322.42 391.97 324.63Q391.53 335.79 392.02 347.22 393.86 358.96 397.38 371.04 402.81 383.48 410.28 396.31 419.78 409.55 431.17 423.21C433.39 425.72 433.15 427.97 430.66 427.45Q418.36 425.8 406.07 425.78 393.78 427.37 381.49 430.5 369.19 434.99 356.9 440.6 344.61 447.03 332.31 453.91C329.82 455.33 327.14 453.51 327.37 450.55Q329.31 434.14 332.52 417.91 337.27 401.9 343.7 386.15 351.88 370.68 361.76 355.52 373.16 340.7 385.83 326.22 385.83 326.22 385.83 326.22" stroke-dasharray="7 3" transform="rotate(141.09677419354838, 400, 400)" opacity="0.68"></path><path d="M381 336.39C383.02 334.09 385.87 333.34 385.85 335.1Q386.07 343.96 387.04 353 388.96 362.22 391.97 371.65 396.21 381.31 401.72 391.2 408.53 401.34 416.59 411.74C418.18 413.65 417.75 415.59 415.79 415.38Q406.07 414.98 396.35 415.6 386.63 417.23 376.9 419.81 367.18 423.25 357.46 427.43 347.74 432.2 338.01 437.4C336.05 438.48 334.06 437.03 334.36 434.68Q336.53 421.75 339.63 408.97 343.78 396.37 349.04 383.95 355.43 371.73 362.95 359.73 376.26 342.17 381 336.39" stroke-dasharray="5 3" transform="rotate(146.32258064516128, 400, 400)" opacity="0.25"></path><path d="M376.86 346.54C378.24 344.83 380.36 344.25 380.46 345.56Q382.37 358.86 386.57 372.56 393.46 386.74 403.21 401.43C404.23 402.79 403.73 404.35 402.26 404.35Q387.82 405.65 373.37 409.1 358.92 414.46 344.47 421.29C343 422.05 341.66 420.93 342 419.2Q346.96 400.33 354.38 381.91 364.38 363.97 376.86 346.54 376.86 346.54 376.86 346.54" stroke-dasharray="6 5" transform="rotate(151.54838709677418, 400, 400)" opacity="0.91"></path><path d="M373.61 356.71C374.43 355.55 375.83 355.16 375.98 356.04Q378.04 364.81 381.17 373.76 385.49 382.91 391.07 392.26C391.63 393.12 391.16 394.23 390.2 394.34Q380.62 395.92 371.04 398.41 361.47 401.74 351.89 405.78C350.92 406.22 350.14 405.44 350.44 404.32Q354.51 392.08 359.71 380.06 369.85 362.49 373.61 356.71" stroke-dasharray="6 5" transform="rotate(156.7741935483871, 400, 400)" opacity="0.21"></path></g></svg>
